<svg xmlns="http://www.w3.org/2000/svg" width="97" height="123.197" viewBox="0 0 97 123.197">
  <g id="Group_2713" data-name="Group 2713" transform="translate(-163.582 -1216)">
    <g id="Group_2712" data-name="Group 2712">
      <circle id="Ellipse_371" data-name="Ellipse 371" cx="48.5" cy="48.5" r="48.5" transform="translate(163.582 1216)" fill="#fec82e"/>
    </g>
    <g id="Group_2666" data-name="Group 2666" transform="translate(164.582 1244.472)">
      <g id="Group_2138" data-name="Group 2138" transform="translate(12.564 0)">
        <ellipse id="Ellipse_346" data-name="Ellipse 346" cx="37.691" cy="7.135" rx="37.691" ry="7.135" transform="translate(0 63.956)" fill="#f1f1f1"/>
        <g id="Group_2137" data-name="Group 2137" transform="translate(8.426 0)">
          <g id="Group_2135" data-name="Group 2135">
            <path id="Path_22934" data-name="Path 22934" d="M2520.466,1268H2472v63.183h48.466" transform="translate(-2472 -1261.77)" fill="#fff" stroke="#000" stroke-miterlimit="10" stroke-width="1.3"/>
            <path id="Path_22935" data-name="Path 22935" d="M2694.23,1297.592V1268H2688" transform="translate(-2646.108 -1261.77)" fill="#fff" stroke="#000" stroke-miterlimit="10" stroke-width="1.3"/>
            <path id="Path_23033" data-name="Path 23033" d="M2687.362,1444a10.87,10.87,0,0,1-12.46,0c-5.622,0-10.9,3.943-10.9,12.46,0,12.4,8.556,18.689,17.132,18.689,8.693,0,17.132-6.376,17.132-18.689C2698.264,1447.883,2692.892,1444,2687.362,1444Z" transform="translate(-2625.507 -1403.984)" fill="#fff" stroke="#000" stroke-miterlimit="10" stroke-width="1.3"/>
            <path id="Path_23034" data-name="Path 23034" d="M2762.9,1508c0,8.607-5.475,12.459-10.9,12.459" transform="translate(-2696.375 -1455.524)" fill="#fff" stroke="#000" stroke-miterlimit="10" stroke-width="1.3"/>
            <path id="Path_23035" data-name="Path 23035" d="M2752,1394.017a18.8,18.8,0,0,1,5.507-13.294l.723-.723" transform="translate(-2696.333 -1352.898)" fill="none" stroke="#000" stroke-miterlimit="10" stroke-width="1.3"/>
            <path id="Path_23036" data-name="Path 23036" d="M2546.689,1239.115V1236h-10.9v3.115h-4.672a3.114,3.114,0,0,0-3.115,3.115v3.115h26.477v-3.115a3.115,3.115,0,0,0-3.114-3.115Z" transform="translate(-2517.158 -1236)" fill="#fff" stroke="#000" stroke-miterlimit="10" stroke-width="1.3"/>
          </g>
          <g id="Group_2136" data-name="Group 2136" transform="translate(9.703 22.169)">
            <path id="Path_22929" data-name="Path 22929" d="M21250.043,345.852s6.469-7.841,12.7,0" transform="translate(-21241.832 -331.592)" fill="none" stroke="#000" stroke-linecap="round" stroke-width="1.3"/>
            <g id="Group_2133" data-name="Group 2133" transform="translate(0 0)">
              <circle id="Ellipse_342" data-name="Ellipse 342" cx="2.028" cy="2.028" r="2.028" transform="translate(26.368)"/>
              <circle id="Ellipse_343" data-name="Ellipse 343" cx="2.028" cy="2.028" r="2.028"/>
            </g>
          </g>
        </g>
      </g>
      <path id="Path_23040" data-name="Path 23040" d="M150.315,1276.666c1.089-.434,2.5-4.842,11-2.662-.218,1.307,0,14.7,0,14.7S149.225,1277.1,150.315,1276.666Z" transform="translate(-141.433 -1224.888)" fill="#fff"/>
      <path id="Path_23039" data-name="Path 23039" d="M2152.482,1283.951s4.177,2.724,15.165,1.907,19.979-3.633,27.153-2.543c-.272.091,0,8.536,0,8.536s-4.178-1.544-25.518,1.544c-10.988,1-17.8-1.544-17.8-1.544Z" transform="translate(-2139.623 -1221.387)" fill="#fff"/>
      <g id="Group_2665" data-name="Group 2665" transform="matrix(0.839, -0.545, 0.545, 0.839, 0, 56.714)">
        <path id="Path_23037" data-name="Path 23037" d="M22.463,21.988c.041-.068,4.258-6.922,4.19-6.961,1.536-3.555-1.263-8.757-6.689-12.182C14.393-.672,8.225-.945,5.855,2.12L5.833,2.1.016,11.628c-.385,6.788,6.117,12.3,11.8,15.887,9.778,6.17,21.747,8.278,28.815,17.066l.6.742,5.253-8.6C39.7,28.286,29.681,25.635,22.463,21.988Zm-1.2-.626c-.726-.39-1.459-.811-2.19-1.248l1.222-2-.763-.482L18.3,19.646c-1.4-.87-2.785-1.817-4.093-2.822l1.125-1.843-.763-.482-1.078,1.766c-.869-.7-1.7-1.418-2.467-2.159l1.86-3.046c1.1,2.82,6.5,6.989,11.084,5.869ZM10.041,13.113a17.737,17.737,0,0,1-2.264-2.978,4.826,4.826,0,0,1,3.317,1.251C10.54,12.293,10.08,13.05,10.041,13.113ZM17.724,8.73,15.417,12.4C12.2,9.121,14.851,7.33,17.724,8.73Zm-11-5.485C8.4.5,14.255.853,19.254,4.009c3.983,2.514,6.524,6.254,6.453,9.073-.093,3.686-5.522,3.294-9.268.233l3.175-5.043L19.036,7.9l-.025-.016c-2.235-1.411-4.767-1.322-5.9.21-.05.068-.65,1.046-1.307,2.12A5.713,5.713,0,0,0,7.091,8.851C6.075,6.667,5.881,4.619,6.72,3.245Zm23.5,31.733L33.134,30.2l-.764-.482-2.961,4.85c-1.8-.891-3.581-1.681-5.371-2.461l2.9-4.744-.763-.482L23.2,31.746c-1.858-.809-3.728-1.634-5.629-2.579l2.938-4.813-.763-.482-2.985,4.889c-1.392-.716-2.8-1.5-4.241-2.412-.275-.174-.553-.354-.833-.537l2.859-4.684-.763-.482-2.846,4.662a38.03,38.03,0,0,1-4.37-3.451l3-4.914-.763-.482L5.9,21.218A19.06,19.06,0,0,1,2.77,17.257l2.977-4.876L4.984,11.9l-2.7,4.423a9.249,9.249,0,0,1-.94-4.271L4.9,6.226c.707,5.97,7.291,11.188,12.3,14.347h0c7.324,4.623,13.681,5.969,20.8,10.46A32.7,32.7,0,0,1,42.126,34.1l-3.782,6.2A32.268,32.268,0,0,0,35.79,38.3l2.831-4.637-.764-.482-2.812,4.606A49,49,0,0,0,30.219,34.978Z" transform="translate(0 0)"/>
      </g>
      <path id="Path_23038" data-name="Path 23038" d="M2159.071,1267.4c0,.467-.408,22.748-.408,22.748a51.71,51.71,0,0,0,15.6-1.226C2182.023,1286.948,2159.071,1266.935,2159.071,1267.4Z" transform="translate(-2137.023 -1227.064)" fill="#fff"/>
    </g>
  </g>
</svg>
